<?xml version="1.0" encoding="utf-8" standalone="no"?>
<!DOCTYPE svg PUBLIC "-//W3C//DTD SVG 1.1//EN"
  "http://www.w3.org/Graphics/SVG/1.1/DTD/svg11.dtd">
<svg xmlns:xlink="http://www.w3.org/1999/xlink" width="1728pt" height="432pt" viewBox="0 0 1728 432" xmlns="http://www.w3.org/2000/svg" version="1.1">
 <metadata>
  <rdf:RDF xmlns:dc="http://purl.org/dc/elements/1.1/" xmlns:cc="http://creativecommons.org/ns#" xmlns:rdf="http://www.w3.org/1999/02/22-rdf-syntax-ns#">
   <cc:Work>
    <dc:type rdf:resource="http://purl.org/dc/dcmitype/StillImage"/>
    <dc:date>2024-10-06T16:55:25.430805</dc:date>
    <dc:format>image/svg+xml</dc:format>
    <dc:creator>
     <cc:Agent>
      <dc:title>Matplotlib v3.9.0, https://matplotlib.org/</dc:title>
     </cc:Agent>
    </dc:creator>
   </cc:Work>
  </rdf:RDF>
 </metadata>
 <defs>
  <style type="text/css">*{stroke-linejoin: round; stroke-linecap: butt}</style>
 </defs>
 <g id="figure_1">
  <g id="patch_1">
   <path d="M 0 432 
L 1728 432 
L 1728 0 
L 0 0 
z
" style="fill: #ffffff"/>
  </g>
  <g id="axes_1">
   <g id="patch_2">
    <path d="M 216 384.48 
L 1555.2 384.48 
L 1555.2 51.84 
L 216 51.84 
z
" style="fill: #ffffff"/>
   </g>
   <g id="patch_3">
    <path d="M 276.872727 384.48 
L 282.929715 384.48 
L 282.929715 239.853913 
L 276.872727 239.853913 
z
" clip-path="url(#p8d987aa411)" style="fill: #0000ff"/>
   </g>
   <g id="patch_4">
    <path d="M 307.157666 384.48 
L 313.214654 384.48 
L 313.214654 297.704348 
L 307.157666 297.704348 
z
" clip-path="url(#p8d987aa411)" style="fill: #0000ff"/>
   </g>
   <g id="patch_5">
    <path d="M 322.300136 384.48 
L 328.357123 384.48 
L 328.357123 283.241739 
L 322.300136 283.241739 
z
" clip-path="url(#p8d987aa411)" style="fill: #0000ff"/>
   </g>
   <g id="patch_6">
    <path d="M 337.442605 384.48 
L 343.499593 384.48 
L 343.499593 326.629565 
L 337.442605 326.629565 
z
" clip-path="url(#p8d987aa411)" style="fill: #0000ff"/>
   </g>
   <g id="patch_7">
    <path d="M 352.585075 384.48 
L 358.642062 384.48 
L 358.642062 297.704348 
L 352.585075 297.704348 
z
" clip-path="url(#p8d987aa411)" style="fill: #0000ff"/>
   </g>
   <g id="patch_8">
    <path d="M 367.727544 384.48 
L 373.784532 384.48 
L 373.784532 297.704348 
L 367.727544 297.704348 
z
" clip-path="url(#p8d987aa411)" style="fill: #0000ff"/>
   </g>
   <g id="patch_9">
    <path d="M 382.870014 384.48 
L 388.927001 384.48 
L 388.927001 239.853913 
L 382.870014 239.853913 
z
" clip-path="url(#p8d987aa411)" style="fill: #0000ff"/>
   </g>
   <g id="patch_10">
    <path d="M 413.154953 384.48 
L 419.21194 384.48 
L 419.21194 283.241739 
L 413.154953 283.241739 
z
" clip-path="url(#p8d987aa411)" style="fill: #0000ff"/>
   </g>
   <g id="patch_11">
    <path d="M 428.297422 384.48 
L 434.35441 384.48 
L 434.35441 312.166957 
L 428.297422 312.166957 
z
" clip-path="url(#p8d987aa411)" style="fill: #0000ff"/>
   </g>
   <g id="patch_12">
    <path d="M 443.439891 384.48 
L 449.496879 384.48 
L 449.496879 312.166957 
L 443.439891 312.166957 
z
" clip-path="url(#p8d987aa411)" style="fill: #0000ff"/>
   </g>
   <g id="patch_13">
    <path d="M 410.126459 384.48 
L 416.183446 384.48 
L 416.183446 283.241739 
L 410.126459 283.241739 
z
" clip-path="url(#p8d987aa411)" style="fill: #0000ff"/>
   </g>
   <g id="patch_14">
    <path d="M 425.268928 384.48 
L 431.325916 384.48 
L 431.325916 326.629565 
L 425.268928 326.629565 
z
" clip-path="url(#p8d987aa411)" style="fill: #0000ff"/>
   </g>
   <g id="patch_15">
    <path d="M 440.411398 384.48 
L 446.468385 384.48 
L 446.468385 312.166957 
L 440.411398 312.166957 
z
" clip-path="url(#p8d987aa411)" style="fill: #0000ff"/>
   </g>
   <g id="patch_16">
    <path d="M 455.553867 384.48 
L 461.610855 384.48 
L 461.610855 297.704348 
L 455.553867 297.704348 
z
" clip-path="url(#p8d987aa411)" style="fill: #0000ff"/>
   </g>
   <g id="patch_17">
    <path d="M 470.696336 384.48 
L 476.753324 384.48 
L 476.753324 210.928696 
L 470.696336 210.928696 
z
" clip-path="url(#p8d987aa411)" style="fill: #0000ff"/>
   </g>
   <g id="patch_18">
    <path d="M 458.582361 384.48 
L 464.639349 384.48 
L 464.639349 312.166957 
L 458.582361 312.166957 
z
" clip-path="url(#p8d987aa411)" style="fill: #0000ff"/>
   </g>
   <g id="patch_19">
    <path d="M 473.72483 384.48 
L 479.781818 384.48 
L 479.781818 254.316522 
L 473.72483 254.316522 
z
" clip-path="url(#p8d987aa411)" style="fill: #0000ff"/>
   </g>
   <g id="patch_20">
    <path d="M 488.8673 384.48 
L 494.924288 384.48 
L 494.924288 210.928696 
L 488.8673 210.928696 
z
" clip-path="url(#p8d987aa411)" style="fill: #0000ff"/>
   </g>
   <g id="patch_21">
    <path d="M 504.009769 384.48 
L 510.066757 384.48 
L 510.066757 283.241739 
L 504.009769 283.241739 
z
" clip-path="url(#p8d987aa411)" style="fill: #0000ff"/>
   </g>
   <g id="patch_22">
    <path d="M 519.152239 384.48 
L 525.209227 384.48 
L 525.209227 355.554783 
L 519.152239 355.554783 
z
" clip-path="url(#p8d987aa411)" style="fill: #0000ff"/>
   </g>
   <g id="patch_23">
    <path d="M 534.294708 384.48 
L 540.351696 384.48 
L 540.351696 225.391304 
L 534.294708 225.391304 
z
" clip-path="url(#p8d987aa411)" style="fill: #0000ff"/>
   </g>
   <g id="patch_24">
    <path d="M 549.437178 384.48 
L 555.494166 384.48 
L 555.494166 225.391304 
L 549.437178 225.391304 
z
" clip-path="url(#p8d987aa411)" style="fill: #0000ff"/>
   </g>
   <g id="patch_25">
    <path d="M 564.579647 384.48 
L 570.636635 384.48 
L 570.636635 196.466087 
L 564.579647 196.466087 
z
" clip-path="url(#p8d987aa411)" style="fill: #0000ff"/>
   </g>
   <g id="patch_26">
    <path d="M 579.722117 384.48 
L 585.779104 384.48 
L 585.779104 225.391304 
L 579.722117 225.391304 
z
" clip-path="url(#p8d987aa411)" style="fill: #0000ff"/>
   </g>
   <g id="patch_27">
    <path d="M 594.864586 384.48 
L 600.921574 384.48 
L 600.921574 312.166957 
L 594.864586 312.166957 
z
" clip-path="url(#p8d987aa411)" style="fill: #0000ff"/>
   </g>
   <g id="patch_28">
    <path d="M 610.007056 384.48 
L 616.064043 384.48 
L 616.064043 254.316522 
L 610.007056 254.316522 
z
" clip-path="url(#p8d987aa411)" style="fill: #0000ff"/>
   </g>
   <g id="patch_29">
    <path d="M 625.149525 384.48 
L 631.206513 384.48 
L 631.206513 225.391304 
L 625.149525 225.391304 
z
" clip-path="url(#p8d987aa411)" style="fill: #0000ff"/>
   </g>
   <g id="patch_30">
    <path d="M 640.291995 384.48 
L 646.348982 384.48 
L 646.348982 196.466087 
L 640.291995 196.466087 
z
" clip-path="url(#p8d987aa411)" style="fill: #0000ff"/>
   </g>
   <g id="patch_31">
    <path d="M 655.434464 384.48 
L 661.491452 384.48 
L 661.491452 312.166957 
L 655.434464 312.166957 
z
" clip-path="url(#p8d987aa411)" style="fill: #0000ff"/>
   </g>
   <g id="patch_32">
    <path d="M 670.576934 384.48 
L 676.633921 384.48 
L 676.633921 225.391304 
L 670.576934 225.391304 
z
" clip-path="url(#p8d987aa411)" style="fill: #0000ff"/>
   </g>
   <g id="patch_33">
    <path d="M 685.719403 384.48 
L 691.776391 384.48 
L 691.776391 254.316522 
L 685.719403 254.316522 
z
" clip-path="url(#p8d987aa411)" style="fill: #0000ff"/>
   </g>
   <g id="patch_34">
    <path d="M 700.861872 384.48 
L 706.91886 384.48 
L 706.91886 254.316522 
L 700.861872 254.316522 
z
" clip-path="url(#p8d987aa411)" style="fill: #0000ff"/>
   </g>
   <g id="patch_35">
    <path d="M 716.004342 384.48 
L 722.06133 384.48 
L 722.06133 312.166957 
L 716.004342 312.166957 
z
" clip-path="url(#p8d987aa411)" style="fill: #0000ff"/>
   </g>
   <g id="patch_36">
    <path d="M 731.146811 384.48 
L 737.203799 384.48 
L 737.203799 196.466087 
L 731.146811 196.466087 
z
" clip-path="url(#p8d987aa411)" style="fill: #0000ff"/>
   </g>
   <g id="patch_37">
    <path d="M 743.260787 384.48 
L 749.317775 384.48 
L 749.317775 312.166957 
L 743.260787 312.166957 
z
" clip-path="url(#p8d987aa411)" style="fill: #0000ff"/>
   </g>
   <g id="patch_38">
    <path d="M 746.289281 384.48 
L 752.346269 384.48 
L 752.346269 341.092174 
L 746.289281 341.092174 
z
" clip-path="url(#p8d987aa411)" style="fill: #0000ff"/>
   </g>
   <g id="patch_39">
    <path d="M 761.43175 384.48 
L 767.488738 384.48 
L 767.488738 283.241739 
L 761.43175 283.241739 
z
" clip-path="url(#p8d987aa411)" style="fill: #0000ff"/>
   </g>
   <g id="patch_40">
    <path d="M 776.57422 384.48 
L 782.631208 384.48 
L 782.631208 283.241739 
L 776.57422 283.241739 
z
" clip-path="url(#p8d987aa411)" style="fill: #0000ff"/>
   </g>
   <g id="patch_41">
    <path d="M 806.859159 384.48 
L 812.916147 384.48 
L 812.916147 341.092174 
L 806.859159 341.092174 
z
" clip-path="url(#p8d987aa411)" style="fill: #0000ff"/>
   </g>
   <g id="patch_42">
    <path d="M 822.001628 384.48 
L 828.058616 384.48 
L 828.058616 254.316522 
L 822.001628 254.316522 
z
" clip-path="url(#p8d987aa411)" style="fill: #0000ff"/>
   </g>
   <g id="patch_43">
    <path d="M 852.286567 384.48 
L 858.343555 384.48 
L 858.343555 312.166957 
L 852.286567 312.166957 
z
" clip-path="url(#p8d987aa411)" style="fill: #0000ff"/>
   </g>
   <g id="patch_44">
    <path d="M 882.571506 384.48 
L 888.628494 384.48 
L 888.628494 210.928696 
L 882.571506 210.928696 
z
" clip-path="url(#p8d987aa411)" style="fill: #0000ff"/>
   </g>
   <g id="patch_45">
    <path d="M 897.713976 384.48 
L 903.770963 384.48 
L 903.770963 268.77913 
L 897.713976 268.77913 
z
" clip-path="url(#p8d987aa411)" style="fill: #0000ff"/>
   </g>
   <g id="patch_46">
    <path d="M 912.856445 384.48 
L 918.913433 384.48 
L 918.913433 283.241739 
L 912.856445 283.241739 
z
" clip-path="url(#p8d987aa411)" style="fill: #0000ff"/>
   </g>
   <g id="patch_47">
    <path d="M 927.998915 384.48 
L 934.055902 384.48 
L 934.055902 210.928696 
L 927.998915 210.928696 
z
" clip-path="url(#p8d987aa411)" style="fill: #0000ff"/>
   </g>
   <g id="patch_48">
    <path d="M 943.141384 384.48 
L 949.198372 384.48 
L 949.198372 210.928696 
L 943.141384 210.928696 
z
" clip-path="url(#p8d987aa411)" style="fill: #0000ff"/>
   </g>
   <g id="patch_49">
    <path d="M 958.283853 384.48 
L 964.340841 384.48 
L 964.340841 167.54087 
L 958.283853 167.54087 
z
" clip-path="url(#p8d987aa411)" style="fill: #0000ff"/>
   </g>
   <g id="patch_50">
    <path d="M 973.426323 384.48 
L 979.483311 384.48 
L 979.483311 138.615652 
L 973.426323 138.615652 
z
" clip-path="url(#p8d987aa411)" style="fill: #0000ff"/>
   </g>
   <g id="patch_51">
    <path d="M 988.568792 384.48 
L 994.62578 384.48 
L 994.62578 254.316522 
L 988.568792 254.316522 
z
" clip-path="url(#p8d987aa411)" style="fill: #0000ff"/>
   </g>
   <g id="patch_52">
    <path d="M 1003.711262 384.48 
L 1009.76825 384.48 
L 1009.76825 268.77913 
L 1003.711262 268.77913 
z
" clip-path="url(#p8d987aa411)" style="fill: #0000ff"/>
   </g>
   <g id="patch_53">
    <path d="M 1018.853731 384.48 
L 1024.910719 384.48 
L 1024.910719 196.466087 
L 1018.853731 196.466087 
z
" clip-path="url(#p8d987aa411)" style="fill: #0000ff"/>
   </g>
   <g id="patch_54">
    <path d="M 1033.996201 384.48 
L 1040.053189 384.48 
L 1040.053189 210.928696 
L 1033.996201 210.928696 
z
" clip-path="url(#p8d987aa411)" style="fill: #0000ff"/>
   </g>
   <g id="patch_55">
    <path d="M 1049.13867 384.48 
L 1055.195658 384.48 
L 1055.195658 225.391304 
L 1049.13867 225.391304 
z
" clip-path="url(#p8d987aa411)" style="fill: #0000ff"/>
   </g>
   <g id="patch_56">
    <path d="M 1064.28114 384.48 
L 1070.338128 384.48 
L 1070.338128 167.54087 
L 1064.28114 167.54087 
z
" clip-path="url(#p8d987aa411)" style="fill: #0000ff"/>
   </g>
   <g id="patch_57">
    <path d="M 1079.423609 384.48 
L 1085.480597 384.48 
L 1085.480597 182.003478 
L 1079.423609 182.003478 
z
" clip-path="url(#p8d987aa411)" style="fill: #0000ff"/>
   </g>
   <g id="patch_58">
    <path d="M 1094.566079 384.48 
L 1100.623066 384.48 
L 1100.623066 196.466087 
L 1094.566079 196.466087 
z
" clip-path="url(#p8d987aa411)" style="fill: #0000ff"/>
   </g>
   <g id="patch_59">
    <path d="M 1109.708548 384.48 
L 1115.765536 384.48 
L 1115.765536 95.227826 
L 1109.708548 95.227826 
z
" clip-path="url(#p8d987aa411)" style="fill: #0000ff"/>
   </g>
   <g id="patch_60">
    <path d="M 1124.851018 384.48 
L 1130.908005 384.48 
L 1130.908005 196.466087 
L 1124.851018 196.466087 
z
" clip-path="url(#p8d987aa411)" style="fill: #0000ff"/>
   </g>
   <g id="patch_61">
    <path d="M 1139.993487 384.48 
L 1146.050475 384.48 
L 1146.050475 153.078261 
L 1139.993487 153.078261 
z
" clip-path="url(#p8d987aa411)" style="fill: #0000ff"/>
   </g>
   <g id="patch_62">
    <path d="M 1155.135957 384.48 
L 1161.192944 384.48 
L 1161.192944 225.391304 
L 1155.135957 225.391304 
z
" clip-path="url(#p8d987aa411)" style="fill: #0000ff"/>
   </g>
   <g id="patch_63">
    <path d="M 1170.278426 384.48 
L 1176.335414 384.48 
L 1176.335414 196.466087 
L 1170.278426 196.466087 
z
" clip-path="url(#p8d987aa411)" style="fill: #0000ff"/>
   </g>
   <g id="patch_64">
    <path d="M 1185.420896 384.48 
L 1191.477883 384.48 
L 1191.477883 167.54087 
L 1185.420896 167.54087 
z
" clip-path="url(#p8d987aa411)" style="fill: #0000ff"/>
   </g>
   <g id="patch_65">
    <path d="M 1200.563365 384.48 
L 1206.620353 384.48 
L 1206.620353 153.078261 
L 1200.563365 153.078261 
z
" clip-path="url(#p8d987aa411)" style="fill: #0000ff"/>
   </g>
   <g id="patch_66">
    <path d="M 1215.705834 384.48 
L 1221.762822 384.48 
L 1221.762822 167.54087 
L 1215.705834 167.54087 
z
" clip-path="url(#p8d987aa411)" style="fill: #0000ff"/>
   </g>
   <g id="patch_67">
    <path d="M 1230.848304 384.48 
L 1236.905292 384.48 
L 1236.905292 109.690435 
L 1230.848304 109.690435 
z
" clip-path="url(#p8d987aa411)" style="fill: #0000ff"/>
   </g>
   <g id="patch_68">
    <path d="M 1245.990773 384.48 
L 1252.047761 384.48 
L 1252.047761 109.690435 
L 1245.990773 109.690435 
z
" clip-path="url(#p8d987aa411)" style="fill: #0000ff"/>
   </g>
   <g id="patch_69">
    <path d="M 1261.133243 384.48 
L 1267.190231 384.48 
L 1267.190231 80.765217 
L 1261.133243 80.765217 
z
" clip-path="url(#p8d987aa411)" style="fill: #0000ff"/>
   </g>
   <g id="patch_70">
    <path d="M 1276.275712 384.48 
L 1282.3327 384.48 
L 1282.3327 124.153043 
L 1276.275712 124.153043 
z
" clip-path="url(#p8d987aa411)" style="fill: #0000ff"/>
   </g>
   <g id="patch_71">
    <path d="M 1291.418182 384.48 
L 1297.47517 384.48 
L 1297.47517 355.554783 
L 1291.418182 355.554783 
z
" clip-path="url(#p8d987aa411)" style="fill: #0000ff"/>
   </g>
   <g id="patch_72">
    <path d="M 1306.560651 384.48 
L 1312.617639 384.48 
L 1312.617639 196.466087 
L 1306.560651 196.466087 
z
" clip-path="url(#p8d987aa411)" style="fill: #0000ff"/>
   </g>
   <g id="patch_73">
    <path d="M 1321.703121 384.48 
L 1327.760109 384.48 
L 1327.760109 196.466087 
L 1321.703121 196.466087 
z
" clip-path="url(#p8d987aa411)" style="fill: #0000ff"/>
   </g>
   <g id="patch_74">
    <path d="M 1336.84559 384.48 
L 1342.902578 384.48 
L 1342.902578 355.554783 
L 1336.84559 355.554783 
z
" clip-path="url(#p8d987aa411)" style="fill: #0000ff"/>
   </g>
   <g id="patch_75">
    <path d="M 1351.98806 384.48 
L 1358.045047 384.48 
L 1358.045047 210.928696 
L 1351.98806 210.928696 
z
" clip-path="url(#p8d987aa411)" style="fill: #0000ff"/>
   </g>
   <g id="patch_76">
    <path d="M 1367.130529 384.48 
L 1373.187517 384.48 
L 1373.187517 210.928696 
L 1367.130529 210.928696 
z
" clip-path="url(#p8d987aa411)" style="fill: #0000ff"/>
   </g>
   <g id="patch_77">
    <path d="M 1382.272999 384.48 
L 1388.329986 384.48 
L 1388.329986 254.316522 
L 1382.272999 254.316522 
z
" clip-path="url(#p8d987aa411)" style="fill: #0000ff"/>
   </g>
   <g id="patch_78">
    <path d="M 1397.415468 384.48 
L 1403.472456 384.48 
L 1403.472456 225.391304 
L 1397.415468 225.391304 
z
" clip-path="url(#p8d987aa411)" style="fill: #0000ff"/>
   </g>
   <g id="patch_79">
    <path d="M 1457.985346 384.48 
L 1464.042334 384.48 
L 1464.042334 239.853913 
L 1457.985346 239.853913 
z
" clip-path="url(#p8d987aa411)" style="fill: #0000ff"/>
   </g>
   <g id="patch_80">
    <path d="M 1412.557938 384.48 
L 1418.614925 384.48 
L 1418.614925 225.391304 
L 1412.557938 225.391304 
z
" clip-path="url(#p8d987aa411)" style="fill: #0000ff"/>
   </g>
   <g id="patch_81">
    <path d="M 1442.842877 384.48 
L 1448.899864 384.48 
L 1448.899864 182.003478 
L 1442.842877 182.003478 
z
" clip-path="url(#p8d987aa411)" style="fill: #0000ff"/>
   </g>
   <g id="patch_82">
    <path d="M 1473.127815 384.48 
L 1479.184803 384.48 
L 1479.184803 51.84 
L 1473.127815 51.84 
z
" clip-path="url(#p8d987aa411)" style="fill: #0000ff"/>
   </g>
   <g id="patch_83">
    <path d="M 1488.270285 384.48 
L 1494.327273 384.48 
L 1494.327273 124.153043 
L 1488.270285 124.153043 
z
" clip-path="url(#p8d987aa411)" style="fill: #0000ff"/>
   </g>
   <g id="patch_84">
    <path d="M 276.872727 239.853913 
L 282.929715 239.853913 
L 282.929715 239.853913 
L 276.872727 239.853913 
z
" clip-path="url(#p8d987aa411)" style="fill: #ff0000"/>
   </g>
   <g id="patch_85">
    <path d="M 307.157666 297.704348 
L 313.214654 297.704348 
L 313.214654 297.704348 
L 307.157666 297.704348 
z
" clip-path="url(#p8d987aa411)" style="fill: #ff0000"/>
   </g>
   <g id="patch_86">
    <path d="M 322.300136 283.241739 
L 328.357123 283.241739 
L 328.357123 283.241739 
L 322.300136 283.241739 
z
" clip-path="url(#p8d987aa411)" style="fill: #ff0000"/>
   </g>
   <g id="patch_87">
    <path d="M 337.442605 326.629565 
L 343.499593 326.629565 
L 343.499593 326.629565 
L 337.442605 326.629565 
z
" clip-path="url(#p8d987aa411)" style="fill: #ff0000"/>
   </g>
   <g id="patch_88">
    <path d="M 352.585075 297.704348 
L 358.642062 297.704348 
L 358.642062 297.704348 
L 352.585075 297.704348 
z
" clip-path="url(#p8d987aa411)" style="fill: #ff0000"/>
   </g>
   <g id="patch_89">
    <path d="M 367.727544 297.704348 
L 373.784532 297.704348 
L 373.784532 297.704348 
L 367.727544 297.704348 
z
" clip-path="url(#p8d987aa411)" style="fill: #ff0000"/>
   </g>
   <g id="patch_90">
    <path d="M 382.870014 239.853913 
L 388.927001 239.853913 
L 388.927001 239.853913 
L 382.870014 239.853913 
z
" clip-path="url(#p8d987aa411)" style="fill: #ff0000"/>
   </g>
   <g id="patch_91">
    <path d="M 413.154953 283.241739 
L 419.21194 283.241739 
L 419.21194 283.241739 
L 413.154953 283.241739 
z
" clip-path="url(#p8d987aa411)" style="fill: #ff0000"/>
   </g>
   <g id="patch_92">
    <path d="M 428.297422 312.166957 
L 434.35441 312.166957 
L 434.35441 312.166957 
L 428.297422 312.166957 
z
" clip-path="url(#p8d987aa411)" style="fill: #ff0000"/>
   </g>
   <g id="patch_93">
    <path d="M 443.439891 312.166957 
L 449.496879 312.166957 
L 449.496879 312.166957 
L 443.439891 312.166957 
z
" clip-path="url(#p8d987aa411)" style="fill: #ff0000"/>
   </g>
   <g id="patch_94">
    <path d="M 410.126459 283.241739 
L 416.183446 283.241739 
L 416.183446 283.241739 
L 410.126459 283.241739 
z
" clip-path="url(#p8d987aa411)" style="fill: #ff0000"/>
   </g>
   <g id="patch_95">
    <path d="M 425.268928 326.629565 
L 431.325916 326.629565 
L 431.325916 326.629565 
L 425.268928 326.629565 
z
" clip-path="url(#p8d987aa411)" style="fill: #ff0000"/>
   </g>
   <g id="patch_96">
    <path d="M 440.411398 312.166957 
L 446.468385 312.166957 
L 446.468385 312.166957 
L 440.411398 312.166957 
z
" clip-path="url(#p8d987aa411)" style="fill: #ff0000"/>
   </g>
   <g id="patch_97">
    <path d="M 455.553867 297.704348 
L 461.610855 297.704348 
L 461.610855 297.704348 
L 455.553867 297.704348 
z
" clip-path="url(#p8d987aa411)" style="fill: #ff0000"/>
   </g>
   <g id="patch_98">
    <path d="M 470.696336 210.928696 
L 476.753324 210.928696 
L 476.753324 210.928696 
L 470.696336 210.928696 
z
" clip-path="url(#p8d987aa411)" style="fill: #ff0000"/>
   </g>
   <g id="patch_99">
    <path d="M 458.582361 312.166957 
L 464.639349 312.166957 
L 464.639349 312.166957 
L 458.582361 312.166957 
z
" clip-path="url(#p8d987aa411)" style="fill: #ff0000"/>
   </g>
   <g id="patch_100">
    <path d="M 473.72483 254.316522 
L 479.781818 254.316522 
L 479.781818 254.316522 
L 473.72483 254.316522 
z
" clip-path="url(#p8d987aa411)" style="fill: #ff0000"/>
   </g>
   <g id="patch_101">
    <path d="M 488.8673 210.928696 
L 494.924288 210.928696 
L 494.924288 210.928696 
L 488.8673 210.928696 
z
" clip-path="url(#p8d987aa411)" style="fill: #ff0000"/>
   </g>
   <g id="patch_102">
    <path d="M 504.009769 283.241739 
L 510.066757 283.241739 
L 510.066757 283.241739 
L 504.009769 283.241739 
z
" clip-path="url(#p8d987aa411)" style="fill: #ff0000"/>
   </g>
   <g id="patch_103">
    <path d="M 519.152239 355.554783 
L 525.209227 355.554783 
L 525.209227 341.092174 
L 519.152239 341.092174 
z
" clip-path="url(#p8d987aa411)" style="fill: #ff0000"/>
   </g>
   <g id="patch_104">
    <path d="M 534.294708 225.391304 
L 540.351696 225.391304 
L 540.351696 225.391304 
L 534.294708 225.391304 
z
" clip-path="url(#p8d987aa411)" style="fill: #ff0000"/>
   </g>
   <g id="patch_105">
    <path d="M 549.437178 225.391304 
L 555.494166 225.391304 
L 555.494166 225.391304 
L 549.437178 225.391304 
z
" clip-path="url(#p8d987aa411)" style="fill: #ff0000"/>
   </g>
   <g id="patch_106">
    <path d="M 564.579647 196.466087 
L 570.636635 196.466087 
L 570.636635 182.003478 
L 564.579647 182.003478 
z
" clip-path="url(#p8d987aa411)" style="fill: #ff0000"/>
   </g>
   <g id="patch_107">
    <path d="M 579.722117 225.391304 
L 585.779104 225.391304 
L 585.779104 196.466087 
L 579.722117 196.466087 
z
" clip-path="url(#p8d987aa411)" style="fill: #ff0000"/>
   </g>
   <g id="patch_108">
    <path d="M 594.864586 312.166957 
L 600.921574 312.166957 
L 600.921574 312.166957 
L 594.864586 312.166957 
z
" clip-path="url(#p8d987aa411)" style="fill: #ff0000"/>
   </g>
   <g id="patch_109">
    <path d="M 610.007056 254.316522 
L 616.064043 254.316522 
L 616.064043 254.316522 
L 610.007056 254.316522 
z
" clip-path="url(#p8d987aa411)" style="fill: #ff0000"/>
   </g>
   <g id="patch_110">
    <path d="M 625.149525 225.391304 
L 631.206513 225.391304 
L 631.206513 210.928696 
L 625.149525 210.928696 
z
" clip-path="url(#p8d987aa411)" style="fill: #ff0000"/>
   </g>
   <g id="patch_111">
    <path d="M 640.291995 196.466087 
L 646.348982 196.466087 
L 646.348982 167.54087 
L 640.291995 167.54087 
z
" clip-path="url(#p8d987aa411)" style="fill: #ff0000"/>
   </g>
   <g id="patch_112">
    <path d="M 655.434464 312.166957 
L 661.491452 312.166957 
L 661.491452 167.54087 
L 655.434464 167.54087 
z
" clip-path="url(#p8d987aa411)" style="fill: #ff0000"/>
   </g>
   <g id="patch_113">
    <path d="M 670.576934 225.391304 
L 676.633921 225.391304 
L 676.633921 80.765217 
L 670.576934 80.765217 
z
" clip-path="url(#p8d987aa411)" style="fill: #ff0000"/>
   </g>
   <g id="patch_114">
    <path d="M 685.719403 254.316522 
L 691.776391 254.316522 
L 691.776391 254.316522 
L 685.719403 254.316522 
z
" clip-path="url(#p8d987aa411)" style="fill: #ff0000"/>
   </g>
   <g id="patch_115">
    <path d="M 700.861872 254.316522 
L 706.91886 254.316522 
L 706.91886 239.853913 
L 700.861872 239.853913 
z
" clip-path="url(#p8d987aa411)" style="fill: #ff0000"/>
   </g>
   <g id="patch_116">
    <path d="M 716.004342 312.166957 
L 722.06133 312.166957 
L 722.06133 283.241739 
L 716.004342 283.241739 
z
" clip-path="url(#p8d987aa411)" style="fill: #ff0000"/>
   </g>
   <g id="patch_117">
    <path d="M 731.146811 196.466087 
L 737.203799 196.466087 
L 737.203799 182.003478 
L 731.146811 182.003478 
z
" clip-path="url(#p8d987aa411)" style="fill: #ff0000"/>
   </g>
   <g id="patch_118">
    <path d="M 743.260787 312.166957 
L 749.317775 312.166957 
L 749.317775 312.166957 
L 743.260787 312.166957 
z
" clip-path="url(#p8d987aa411)" style="fill: #ff0000"/>
   </g>
   <g id="patch_119">
    <path d="M 746.289281 341.092174 
L 752.346269 341.092174 
L 752.346269 326.629565 
L 746.289281 326.629565 
z
" clip-path="url(#p8d987aa411)" style="fill: #ff0000"/>
   </g>
   <g id="patch_120">
    <path d="M 761.43175 283.241739 
L 767.488738 283.241739 
L 767.488738 268.77913 
L 761.43175 268.77913 
z
" clip-path="url(#p8d987aa411)" style="fill: #ff0000"/>
   </g>
   <g id="patch_121">
    <path d="M 776.57422 283.241739 
L 782.631208 283.241739 
L 782.631208 254.316522 
L 776.57422 254.316522 
z
" clip-path="url(#p8d987aa411)" style="fill: #ff0000"/>
   </g>
   <g id="patch_122">
    <path d="M 806.859159 341.092174 
L 812.916147 341.092174 
L 812.916147 312.166957 
L 806.859159 312.166957 
z
" clip-path="url(#p8d987aa411)" style="fill: #ff0000"/>
   </g>
   <g id="patch_123">
    <path d="M 822.001628 254.316522 
L 828.058616 254.316522 
L 828.058616 254.316522 
L 822.001628 254.316522 
z
" clip-path="url(#p8d987aa411)" style="fill: #ff0000"/>
   </g>
   <g id="patch_124">
    <path d="M 852.286567 312.166957 
L 858.343555 312.166957 
L 858.343555 196.466087 
L 852.286567 196.466087 
z
" clip-path="url(#p8d987aa411)" style="fill: #ff0000"/>
   </g>
   <g id="patch_125">
    <path d="M 882.571506 210.928696 
L 888.628494 210.928696 
L 888.628494 210.928696 
L 882.571506 210.928696 
z
" clip-path="url(#p8d987aa411)" style="fill: #ff0000"/>
   </g>
   <g id="patch_126">
    <path d="M 897.713976 268.77913 
L 903.770963 268.77913 
L 903.770963 239.853913 
L 897.713976 239.853913 
z
" clip-path="url(#p8d987aa411)" style="fill: #ff0000"/>
   </g>
   <g id="patch_127">
    <path d="M 912.856445 283.241739 
L 918.913433 283.241739 
L 918.913433 283.241739 
L 912.856445 283.241739 
z
" clip-path="url(#p8d987aa411)" style="fill: #ff0000"/>
   </g>
   <g id="patch_128">
    <path d="M 927.998915 210.928696 
L 934.055902 210.928696 
L 934.055902 196.466087 
L 927.998915 196.466087 
z
" clip-path="url(#p8d987aa411)" style="fill: #ff0000"/>
   </g>
   <g id="patch_129">
    <path d="M 943.141384 210.928696 
L 949.198372 210.928696 
L 949.198372 196.466087 
L 943.141384 196.466087 
z
" clip-path="url(#p8d987aa411)" style="fill: #ff0000"/>
   </g>
   <g id="patch_130">
    <path d="M 958.283853 167.54087 
L 964.340841 167.54087 
L 964.340841 95.227826 
L 958.283853 95.227826 
z
" clip-path="url(#p8d987aa411)" style="fill: #ff0000"/>
   </g>
   <g id="patch_131">
    <path d="M 973.426323 138.615652 
L 979.483311 138.615652 
L 979.483311 138.615652 
L 973.426323 138.615652 
z
" clip-path="url(#p8d987aa411)" style="fill: #ff0000"/>
   </g>
   <g id="patch_132">
    <path d="M 988.568792 254.316522 
L 994.62578 254.316522 
L 994.62578 239.853913 
L 988.568792 239.853913 
z
" clip-path="url(#p8d987aa411)" style="fill: #ff0000"/>
   </g>
   <g id="patch_133">
    <path d="M 1003.711262 268.77913 
L 1009.76825 268.77913 
L 1009.76825 254.316522 
L 1003.711262 254.316522 
z
" clip-path="url(#p8d987aa411)" style="fill: #ff0000"/>
   </g>
   <g id="patch_134">
    <path d="M 1018.853731 196.466087 
L 1024.910719 196.466087 
L 1024.910719 51.84 
L 1018.853731 51.84 
z
" clip-path="url(#p8d987aa411)" style="fill: #ff0000"/>
   </g>
   <g id="patch_135">
    <path d="M 1033.996201 210.928696 
L 1040.053189 210.928696 
L 1040.053189 124.153043 
L 1033.996201 124.153043 
z
" clip-path="url(#p8d987aa411)" style="fill: #ff0000"/>
   </g>
   <g id="patch_136">
    <path d="M 1049.13867 225.391304 
L 1055.195658 225.391304 
L 1055.195658 225.391304 
L 1049.13867 225.391304 
z
" clip-path="url(#p8d987aa411)" style="fill: #ff0000"/>
   </g>
   <g id="patch_137">
    <path d="M 1064.28114 167.54087 
L 1070.338128 167.54087 
L 1070.338128 167.54087 
L 1064.28114 167.54087 
z
" clip-path="url(#p8d987aa411)" style="fill: #ff0000"/>
   </g>
   <g id="patch_138">
    <path d="M 1079.423609 182.003478 
L 1085.480597 182.003478 
L 1085.480597 182.003478 
L 1079.423609 182.003478 
z
" clip-path="url(#p8d987aa411)" style="fill: #ff0000"/>
   </g>
   <g id="patch_139">
    <path d="M 1094.566079 196.466087 
L 1100.623066 196.466087 
L 1100.623066 196.466087 
L 1094.566079 196.466087 
z
" clip-path="url(#p8d987aa411)" style="fill: #ff0000"/>
   </g>
   <g id="patch_140">
    <path d="M 1109.708548 95.227826 
L 1115.765536 95.227826 
L 1115.765536 95.227826 
L 1109.708548 95.227826 
z
" clip-path="url(#p8d987aa411)" style="fill: #ff0000"/>
   </g>
   <g id="patch_141">
    <path d="M 1124.851018 196.466087 
L 1130.908005 196.466087 
L 1130.908005 196.466087 
L 1124.851018 196.466087 
z
" clip-path="url(#p8d987aa411)" style="fill: #ff0000"/>
   </g>
   <g id="patch_142">
    <path d="M 1139.993487 153.078261 
L 1146.050475 153.078261 
L 1146.050475 153.078261 
L 1139.993487 153.078261 
z
" clip-path="url(#p8d987aa411)" style="fill: #ff0000"/>
   </g>
   <g id="patch_143">
    <path d="M 1155.135957 225.391304 
L 1161.192944 225.391304 
L 1161.192944 225.391304 
L 1155.135957 225.391304 
z
" clip-path="url(#p8d987aa411)" style="fill: #ff0000"/>
   </g>
   <g id="patch_144">
    <path d="M 1170.278426 196.466087 
L 1176.335414 196.466087 
L 1176.335414 196.466087 
L 1170.278426 196.466087 
z
" clip-path="url(#p8d987aa411)" style="fill: #ff0000"/>
   </g>
   <g id="patch_145">
    <path d="M 1185.420896 167.54087 
L 1191.477883 167.54087 
L 1191.477883 167.54087 
L 1185.420896 167.54087 
z
" clip-path="url(#p8d987aa411)" style="fill: #ff0000"/>
   </g>
   <g id="patch_146">
    <path d="M 1200.563365 153.078261 
L 1206.620353 153.078261 
L 1206.620353 153.078261 
L 1200.563365 153.078261 
z
" clip-path="url(#p8d987aa411)" style="fill: #ff0000"/>
   </g>
   <g id="patch_147">
    <path d="M 1215.705834 167.54087 
L 1221.762822 167.54087 
L 1221.762822 167.54087 
L 1215.705834 167.54087 
z
" clip-path="url(#p8d987aa411)" style="fill: #ff0000"/>
   </g>
   <g id="patch_148">
    <path d="M 1230.848304 109.690435 
L 1236.905292 109.690435 
L 1236.905292 109.690435 
L 1230.848304 109.690435 
z
" clip-path="url(#p8d987aa411)" style="fill: #ff0000"/>
   </g>
   <g id="patch_149">
    <path d="M 1245.990773 109.690435 
L 1252.047761 109.690435 
L 1252.047761 109.690435 
L 1245.990773 109.690435 
z
" clip-path="url(#p8d987aa411)" style="fill: #ff0000"/>
   </g>
   <g id="patch_150">
    <path d="M 1261.133243 80.765217 
L 1267.190231 80.765217 
L 1267.190231 80.765217 
L 1261.133243 80.765217 
z
" clip-path="url(#p8d987aa411)" style="fill: #ff0000"/>
   </g>
   <g id="patch_151">
    <path d="M 1276.275712 124.153043 
L 1282.3327 124.153043 
L 1282.3327 124.153043 
L 1276.275712 124.153043 
z
" clip-path="url(#p8d987aa411)" style="fill: #ff0000"/>
   </g>
   <g id="patch_152">
    <path d="M 1291.418182 355.554783 
L 1297.47517 355.554783 
L 1297.47517 355.554783 
L 1291.418182 355.554783 
z
" clip-path="url(#p8d987aa411)" style="fill: #ff0000"/>
   </g>
   <g id="patch_153">
    <path d="M 1306.560651 196.466087 
L 1312.617639 196.466087 
L 1312.617639 196.466087 
L 1306.560651 196.466087 
z
" clip-path="url(#p8d987aa411)" style="fill: #ff0000"/>
   </g>
   <g id="patch_154">
    <path d="M 1321.703121 196.466087 
L 1327.760109 196.466087 
L 1327.760109 196.466087 
L 1321.703121 196.466087 
z
" clip-path="url(#p8d987aa411)" style="fill: #ff0000"/>
   </g>
   <g id="patch_155">
    <path d="M 1336.84559 355.554783 
L 1342.902578 355.554783 
L 1342.902578 355.554783 
L 1336.84559 355.554783 
z
" clip-path="url(#p8d987aa411)" style="fill: #ff0000"/>
   </g>
   <g id="patch_156">
    <path d="M 1351.98806 210.928696 
L 1358.045047 210.928696 
L 1358.045047 210.928696 
L 1351.98806 210.928696 
z
" clip-path="url(#p8d987aa411)" style="fill: #ff0000"/>
   </g>
   <g id="patch_157">
    <path d="M 1367.130529 210.928696 
L 1373.187517 210.928696 
L 1373.187517 210.928696 
L 1367.130529 210.928696 
z
" clip-path="url(#p8d987aa411)" style="fill: #ff0000"/>
   </g>
   <g id="patch_158">
    <path d="M 1382.272999 254.316522 
L 1388.329986 254.316522 
L 1388.329986 254.316522 
L 1382.272999 254.316522 
z
" clip-path="url(#p8d987aa411)" style="fill: #ff0000"/>
   </g>
   <g id="patch_159">
    <path d="M 1397.415468 225.391304 
L 1403.472456 225.391304 
L 1403.472456 225.391304 
L 1397.415468 225.391304 
z
" clip-path="url(#p8d987aa411)" style="fill: #ff0000"/>
   </g>
   <g id="patch_160">
    <path d="M 1457.985346 239.853913 
L 1464.042334 239.853913 
L 1464.042334 239.853913 
L 1457.985346 239.853913 
z
" clip-path="url(#p8d987aa411)" style="fill: #ff0000"/>
   </g>
   <g id="patch_161">
    <path d="M 1412.557938 225.391304 
L 1418.614925 225.391304 
L 1418.614925 225.391304 
L 1412.557938 225.391304 
z
" clip-path="url(#p8d987aa411)" style="fill: #ff0000"/>
   </g>
   <g id="patch_162">
    <path d="M 1442.842877 182.003478 
L 1448.899864 182.003478 
L 1448.899864 182.003478 
L 1442.842877 182.003478 
z
" clip-path="url(#p8d987aa411)" style="fill: #ff0000"/>
   </g>
   <g id="patch_163">
    <path d="M 1473.127815 51.84 
L 1479.184803 51.84 
L 1479.184803 51.84 
L 1473.127815 51.84 
z
" clip-path="url(#p8d987aa411)" style="fill: #ff0000"/>
   </g>
   <g id="patch_164">
    <path d="M 1488.270285 124.153043 
L 1494.327273 124.153043 
L 1494.327273 124.153043 
L 1488.270285 124.153043 
z
" clip-path="url(#p8d987aa411)" style="fill: #ff0000"/>
   </g>
   <g id="matplotlib.axis_1">
    <g id="xtick_1">
     <g id="line2d_1">
      <defs>
       <path id="me989c68404" d="M 0 0 
L 0 3.5 
" style="stroke: #000000; stroke-width: 0.8"/>
      </defs>
      <g>
       <use xlink:href="#me989c68404" x="219.331343" y="384.48" style="stroke: #000000; stroke-width: 0.8"/>
      </g>
     </g>
     <g id="text_1">
      <!-- 1870 -->
      <g transform="translate(206.606343 399.078438) scale(0.1 -0.1)">
       <defs>
        <path id="DejaVuSans-31" d="M 794 531 
L 1825 531 
L 1825 4091 
L 703 3866 
L 703 4441 
L 1819 4666 
L 2450 4666 
L 2450 531 
L 3481 531 
L 3481 0 
L 794 0 
L 794 531 
z
" transform="scale(0.015625)"/>
        <path id="DejaVuSans-38" d="M 2034 2216 
Q 1584 2216 1326 1975 
Q 1069 1734 1069 1313 
Q 1069 891 1326 650 
Q 1584 409 2034 409 
Q 2484 409 2743 651 
Q 3003 894 3003 1313 
Q 3003 1734 2745 1975 
Q 2488 2216 2034 2216 
z
M 1403 2484 
Q 997 2584 770 2862 
Q 544 3141 544 3541 
Q 544 4100 942 4425 
Q 1341 4750 2034 4750 
Q 2731 4750 3128 4425 
Q 3525 4100 3525 3541 
Q 3525 3141 3298 2862 
Q 3072 2584 2669 2484 
Q 3125 2378 3379 2068 
Q 3634 1759 3634 1313 
Q 3634 634 3220 271 
Q 2806 -91 2034 -91 
Q 1263 -91 848 271 
Q 434 634 434 1313 
Q 434 1759 690 2068 
Q 947 2378 1403 2484 
z
M 1172 3481 
Q 1172 3119 1398 2916 
Q 1625 2713 2034 2713 
Q 2441 2713 2670 2916 
Q 2900 3119 2900 3481 
Q 2900 3844 2670 4047 
Q 2441 4250 2034 4250 
Q 1625 4250 1398 4047 
Q 1172 3844 1172 3481 
z
" transform="scale(0.015625)"/>
        <path id="DejaVuSans-37" d="M 525 4666 
L 3525 4666 
L 3525 4397 
L 1831 0 
L 1172 0 
L 2766 4134 
L 525 4134 
L 525 4666 
z
" transform="scale(0.015625)"/>
        <path id="DejaVuSans-30" d="M 2034 4250 
Q 1547 4250 1301 3770 
Q 1056 3291 1056 2328 
Q 1056 1369 1301 889 
Q 1547 409 2034 409 
Q 2525 409 2770 889 
Q 3016 1369 3016 2328 
Q 3016 3291 2770 3770 
Q 2525 4250 2034 4250 
z
M 2034 4750 
Q 2819 4750 3233 4129 
Q 3647 3509 3647 2328 
Q 3647 1150 3233 529 
Q 2819 -91 2034 -91 
Q 1250 -91 836 529 
Q 422 1150 422 2328 
Q 422 3509 836 4129 
Q 1250 4750 2034 4750 
z
" transform="scale(0.015625)"/>
       </defs>
       <use xlink:href="#DejaVuSans-31"/>
       <use xlink:href="#DejaVuSans-38" x="63.623047"/>
       <use xlink:href="#DejaVuSans-37" x="127.246094"/>
       <use xlink:href="#DejaVuSans-30" x="190.869141"/>
      </g>
     </g>
    </g>
    <g id="xtick_2">
     <g id="line2d_2">
      <g>
       <use xlink:href="#me989c68404" x="370.756038" y="384.48" style="stroke: #000000; stroke-width: 0.8"/>
      </g>
     </g>
     <g id="text_2">
      <!-- 1875 -->
      <g transform="translate(358.031038 399.078438) scale(0.1 -0.1)">
       <defs>
        <path id="DejaVuSans-35" d="M 691 4666 
L 3169 4666 
L 3169 4134 
L 1269 4134 
L 1269 2991 
Q 1406 3038 1543 3061 
Q 1681 3084 1819 3084 
Q 2600 3084 3056 2656 
Q 3513 2228 3513 1497 
Q 3513 744 3044 326 
Q 2575 -91 1722 -91 
Q 1428 -91 1123 -41 
Q 819 9 494 109 
L 494 744 
Q 775 591 1075 516 
Q 1375 441 1709 441 
Q 2250 441 2565 725 
Q 2881 1009 2881 1497 
Q 2881 1984 2565 2268 
Q 2250 2553 1709 2553 
Q 1456 2553 1204 2497 
Q 953 2441 691 2322 
L 691 4666 
z
" transform="scale(0.015625)"/>
       </defs>
       <use xlink:href="#DejaVuSans-31"/>
       <use xlink:href="#DejaVuSans-38" x="63.623047"/>
       <use xlink:href="#DejaVuSans-37" x="127.246094"/>
       <use xlink:href="#DejaVuSans-35" x="190.869141"/>
      </g>
     </g>
    </g>
    <g id="xtick_3">
     <g id="line2d_3">
      <g>
       <use xlink:href="#me989c68404" x="522.180733" y="384.48" style="stroke: #000000; stroke-width: 0.8"/>
      </g>
     </g>
     <g id="text_3">
      <!-- 1880 -->
      <g transform="translate(509.455733 399.078438) scale(0.1 -0.1)">
       <use xlink:href="#DejaVuSans-31"/>
       <use xlink:href="#DejaVuSans-38" x="63.623047"/>
       <use xlink:href="#DejaVuSans-38" x="127.246094"/>
       <use xlink:href="#DejaVuSans-30" x="190.869141"/>
      </g>
     </g>
    </g>
    <g id="xtick_4">
     <g id="line2d_4">
      <g>
       <use xlink:href="#me989c68404" x="673.605427" y="384.48" style="stroke: #000000; stroke-width: 0.8"/>
      </g>
     </g>
     <g id="text_4">
      <!-- 1885 -->
      <g transform="translate(660.880427 399.078438) scale(0.1 -0.1)">
       <use xlink:href="#DejaVuSans-31"/>
       <use xlink:href="#DejaVuSans-38" x="63.623047"/>
       <use xlink:href="#DejaVuSans-38" x="127.246094"/>
       <use xlink:href="#DejaVuSans-35" x="190.869141"/>
      </g>
     </g>
    </g>
    <g id="xtick_5">
     <g id="line2d_5">
      <g>
       <use xlink:href="#me989c68404" x="825.030122" y="384.48" style="stroke: #000000; stroke-width: 0.8"/>
      </g>
     </g>
     <g id="text_5">
      <!-- 1890 -->
      <g transform="translate(812.305122 399.078438) scale(0.1 -0.1)">
       <defs>
        <path id="DejaVuSans-39" d="M 703 97 
L 703 672 
Q 941 559 1184 500 
Q 1428 441 1663 441 
Q 2288 441 2617 861 
Q 2947 1281 2994 2138 
Q 2813 1869 2534 1725 
Q 2256 1581 1919 1581 
Q 1219 1581 811 2004 
Q 403 2428 403 3163 
Q 403 3881 828 4315 
Q 1253 4750 1959 4750 
Q 2769 4750 3195 4129 
Q 3622 3509 3622 2328 
Q 3622 1225 3098 567 
Q 2575 -91 1691 -91 
Q 1453 -91 1209 -44 
Q 966 3 703 97 
z
M 1959 2075 
Q 2384 2075 2632 2365 
Q 2881 2656 2881 3163 
Q 2881 3666 2632 3958 
Q 2384 4250 1959 4250 
Q 1534 4250 1286 3958 
Q 1038 3666 1038 3163 
Q 1038 2656 1286 2365 
Q 1534 2075 1959 2075 
z
" transform="scale(0.015625)"/>
       </defs>
       <use xlink:href="#DejaVuSans-31"/>
       <use xlink:href="#DejaVuSans-38" x="63.623047"/>
       <use xlink:href="#DejaVuSans-39" x="127.246094"/>
       <use xlink:href="#DejaVuSans-30" x="190.869141"/>
      </g>
     </g>
    </g>
    <g id="xtick_6">
     <g id="line2d_6">
      <g>
       <use xlink:href="#me989c68404" x="976.454817" y="384.48" style="stroke: #000000; stroke-width: 0.8"/>
      </g>
     </g>
     <g id="text_6">
      <!-- 1895 -->
      <g transform="translate(963.729817 399.078438) scale(0.1 -0.1)">
       <use xlink:href="#DejaVuSans-31"/>
       <use xlink:href="#DejaVuSans-38" x="63.623047"/>
       <use xlink:href="#DejaVuSans-39" x="127.246094"/>
       <use xlink:href="#DejaVuSans-35" x="190.869141"/>
      </g>
     </g>
    </g>
    <g id="xtick_7">
     <g id="line2d_7">
      <g>
       <use xlink:href="#me989c68404" x="1127.879512" y="384.48" style="stroke: #000000; stroke-width: 0.8"/>
      </g>
     </g>
     <g id="text_7">
      <!-- 1900 -->
      <g transform="translate(1115.154512 399.078438) scale(0.1 -0.1)">
       <use xlink:href="#DejaVuSans-31"/>
       <use xlink:href="#DejaVuSans-39" x="63.623047"/>
       <use xlink:href="#DejaVuSans-30" x="127.246094"/>
       <use xlink:href="#DejaVuSans-30" x="190.869141"/>
      </g>
     </g>
    </g>
    <g id="xtick_8">
     <g id="line2d_8">
      <g>
       <use xlink:href="#me989c68404" x="1279.304206" y="384.48" style="stroke: #000000; stroke-width: 0.8"/>
      </g>
     </g>
     <g id="text_8">
      <!-- 1905 -->
      <g transform="translate(1266.579206 399.078438) scale(0.1 -0.1)">
       <use xlink:href="#DejaVuSans-31"/>
       <use xlink:href="#DejaVuSans-39" x="63.623047"/>
       <use xlink:href="#DejaVuSans-30" x="127.246094"/>
       <use xlink:href="#DejaVuSans-35" x="190.869141"/>
      </g>
     </g>
    </g>
    <g id="xtick_9">
     <g id="line2d_9">
      <g>
       <use xlink:href="#me989c68404" x="1430.728901" y="384.48" style="stroke: #000000; stroke-width: 0.8"/>
      </g>
     </g>
     <g id="text_9">
      <!-- 1910 -->
      <g transform="translate(1418.003901 399.078438) scale(0.1 -0.1)">
       <use xlink:href="#DejaVuSans-31"/>
       <use xlink:href="#DejaVuSans-39" x="63.623047"/>
       <use xlink:href="#DejaVuSans-31" x="127.246094"/>
       <use xlink:href="#DejaVuSans-30" x="190.869141"/>
      </g>
     </g>
    </g>
    <g id="text_10">
     <!-- Jahr -->
     <g transform="translate(875.836719 412.756563) scale(0.1 -0.1)">
      <defs>
       <path id="DejaVuSans-4a" d="M 628 4666 
L 1259 4666 
L 1259 325 
Q 1259 -519 939 -900 
Q 619 -1281 -91 -1281 
L -331 -1281 
L -331 -750 
L -134 -750 
Q 284 -750 456 -515 
Q 628 -281 628 325 
L 628 4666 
z
" transform="scale(0.015625)"/>
       <path id="DejaVuSans-61" d="M 2194 1759 
Q 1497 1759 1228 1600 
Q 959 1441 959 1056 
Q 959 750 1161 570 
Q 1363 391 1709 391 
Q 2188 391 2477 730 
Q 2766 1069 2766 1631 
L 2766 1759 
L 2194 1759 
z
M 3341 1997 
L 3341 0 
L 2766 0 
L 2766 531 
Q 2569 213 2275 61 
Q 1981 -91 1556 -91 
Q 1019 -91 701 211 
Q 384 513 384 1019 
Q 384 1609 779 1909 
Q 1175 2209 1959 2209 
L 2766 2209 
L 2766 2266 
Q 2766 2663 2505 2880 
Q 2244 3097 1772 3097 
Q 1472 3097 1187 3025 
Q 903 2953 641 2809 
L 641 3341 
Q 956 3463 1253 3523 
Q 1550 3584 1831 3584 
Q 2591 3584 2966 3190 
Q 3341 2797 3341 1997 
z
" transform="scale(0.015625)"/>
       <path id="DejaVuSans-68" d="M 3513 2113 
L 3513 0 
L 2938 0 
L 2938 2094 
Q 2938 2591 2744 2837 
Q 2550 3084 2163 3084 
Q 1697 3084 1428 2787 
Q 1159 2491 1159 1978 
L 1159 0 
L 581 0 
L 581 4863 
L 1159 4863 
L 1159 2956 
Q 1366 3272 1645 3428 
Q 1925 3584 2291 3584 
Q 2894 3584 3203 3211 
Q 3513 2838 3513 2113 
z
" transform="scale(0.015625)"/>
       <path id="DejaVuSans-72" d="M 2631 2963 
Q 2534 3019 2420 3045 
Q 2306 3072 2169 3072 
Q 1681 3072 1420 2755 
Q 1159 2438 1159 1844 
L 1159 0 
L 581 0 
L 581 3500 
L 1159 3500 
L 1159 2956 
Q 1341 3275 1631 3429 
Q 1922 3584 2338 3584 
Q 2397 3584 2469 3576 
Q 2541 3569 2628 3553 
L 2631 2963 
z
" transform="scale(0.015625)"/>
      </defs>
      <use xlink:href="#DejaVuSans-4a"/>
      <use xlink:href="#DejaVuSans-61" x="29.492188"/>
      <use xlink:href="#DejaVuSans-68" x="90.771484"/>
      <use xlink:href="#DejaVuSans-72" x="154.150391"/>
     </g>
    </g>
   </g>
   <g id="matplotlib.axis_2">
    <g id="ytick_1">
     <g id="line2d_10">
      <defs>
       <path id="m6ecb0df2cc" d="M 0 0 
L -3.5 0 
" style="stroke: #000000; stroke-width: 0.8"/>
      </defs>
      <g>
       <use xlink:href="#m6ecb0df2cc" x="216" y="384.48" style="stroke: #000000; stroke-width: 0.8"/>
      </g>
     </g>
     <g id="text_11">
      <!-- 0 -->
      <g transform="translate(202.6375 388.279219) scale(0.1 -0.1)">
       <use xlink:href="#DejaVuSans-30"/>
      </g>
     </g>
    </g>
    <g id="ytick_2">
     <g id="line2d_11">
      <g>
       <use xlink:href="#m6ecb0df2cc" x="216" y="312.166957" style="stroke: #000000; stroke-width: 0.8"/>
      </g>
     </g>
     <g id="text_12">
      <!-- 5 -->
      <g transform="translate(202.6375 315.966175) scale(0.1 -0.1)">
       <use xlink:href="#DejaVuSans-35"/>
      </g>
     </g>
    </g>
    <g id="ytick_3">
     <g id="line2d_12">
      <g>
       <use xlink:href="#m6ecb0df2cc" x="216" y="239.853913" style="stroke: #000000; stroke-width: 0.8"/>
      </g>
     </g>
     <g id="text_13">
      <!-- 10 -->
      <g transform="translate(196.275 243.653132) scale(0.1 -0.1)">
       <use xlink:href="#DejaVuSans-31"/>
       <use xlink:href="#DejaVuSans-30" x="63.623047"/>
      </g>
     </g>
    </g>
    <g id="ytick_4">
     <g id="line2d_13">
      <g>
       <use xlink:href="#m6ecb0df2cc" x="216" y="167.54087" style="stroke: #000000; stroke-width: 0.8"/>
      </g>
     </g>
     <g id="text_14">
      <!-- 15 -->
      <g transform="translate(196.275 171.340088) scale(0.1 -0.1)">
       <use xlink:href="#DejaVuSans-31"/>
       <use xlink:href="#DejaVuSans-35" x="63.623047"/>
      </g>
     </g>
    </g>
    <g id="ytick_5">
     <g id="line2d_14">
      <g>
       <use xlink:href="#m6ecb0df2cc" x="216" y="95.227826" style="stroke: #000000; stroke-width: 0.8"/>
      </g>
     </g>
     <g id="text_15">
      <!-- 20 -->
      <g transform="translate(196.275 99.027045) scale(0.1 -0.1)">
       <defs>
        <path id="DejaVuSans-32" d="M 1228 531 
L 3431 531 
L 3431 0 
L 469 0 
L 469 531 
Q 828 903 1448 1529 
Q 2069 2156 2228 2338 
Q 2531 2678 2651 2914 
Q 2772 3150 2772 3378 
Q 2772 3750 2511 3984 
Q 2250 4219 1831 4219 
Q 1534 4219 1204 4116 
Q 875 4013 500 3803 
L 500 4441 
Q 881 4594 1212 4672 
Q 1544 4750 1819 4750 
Q 2544 4750 2975 4387 
Q 3406 4025 3406 3419 
Q 3406 3131 3298 2873 
Q 3191 2616 2906 2266 
Q 2828 2175 2409 1742 
Q 1991 1309 1228 531 
z
" transform="scale(0.015625)"/>
       </defs>
       <use xlink:href="#DejaVuSans-32"/>
       <use xlink:href="#DejaVuSans-30" x="63.623047"/>
      </g>
     </g>
    </g>
    <g id="text_16">
     <!-- Anzahl Teilnehmer -->
     <g transform="translate(190.195312 264.059219) rotate(-90) scale(0.1 -0.1)">
      <defs>
       <path id="DejaVuSans-41" d="M 2188 4044 
L 1331 1722 
L 3047 1722 
L 2188 4044 
z
M 1831 4666 
L 2547 4666 
L 4325 0 
L 3669 0 
L 3244 1197 
L 1141 1197 
L 716 0 
L 50 0 
L 1831 4666 
z
" transform="scale(0.015625)"/>
       <path id="DejaVuSans-6e" d="M 3513 2113 
L 3513 0 
L 2938 0 
L 2938 2094 
Q 2938 2591 2744 2837 
Q 2550 3084 2163 3084 
Q 1697 3084 1428 2787 
Q 1159 2491 1159 1978 
L 1159 0 
L 581 0 
L 581 3500 
L 1159 3500 
L 1159 2956 
Q 1366 3272 1645 3428 
Q 1925 3584 2291 3584 
Q 2894 3584 3203 3211 
Q 3513 2838 3513 2113 
z
" transform="scale(0.015625)"/>
       <path id="DejaVuSans-7a" d="M 353 3500 
L 3084 3500 
L 3084 2975 
L 922 459 
L 3084 459 
L 3084 0 
L 275 0 
L 275 525 
L 2438 3041 
L 353 3041 
L 353 3500 
z
" transform="scale(0.015625)"/>
       <path id="DejaVuSans-6c" d="M 603 4863 
L 1178 4863 
L 1178 0 
L 603 0 
L 603 4863 
z
" transform="scale(0.015625)"/>
       <path id="DejaVuSans-20" transform="scale(0.015625)"/>
       <path id="DejaVuSans-54" d="M -19 4666 
L 3928 4666 
L 3928 4134 
L 2272 4134 
L 2272 0 
L 1638 0 
L 1638 4134 
L -19 4134 
L -19 4666 
z
" transform="scale(0.015625)"/>
       <path id="DejaVuSans-65" d="M 3597 1894 
L 3597 1613 
L 953 1613 
Q 991 1019 1311 708 
Q 1631 397 2203 397 
Q 2534 397 2845 478 
Q 3156 559 3463 722 
L 3463 178 
Q 3153 47 2828 -22 
Q 2503 -91 2169 -91 
Q 1331 -91 842 396 
Q 353 884 353 1716 
Q 353 2575 817 3079 
Q 1281 3584 2069 3584 
Q 2775 3584 3186 3129 
Q 3597 2675 3597 1894 
z
M 3022 2063 
Q 3016 2534 2758 2815 
Q 2500 3097 2075 3097 
Q 1594 3097 1305 2825 
Q 1016 2553 972 2059 
L 3022 2063 
z
" transform="scale(0.015625)"/>
       <path id="DejaVuSans-69" d="M 603 3500 
L 1178 3500 
L 1178 0 
L 603 0 
L 603 3500 
z
M 603 4863 
L 1178 4863 
L 1178 4134 
L 603 4134 
L 603 4863 
z
" transform="scale(0.015625)"/>
       <path id="DejaVuSans-6d" d="M 3328 2828 
Q 3544 3216 3844 3400 
Q 4144 3584 4550 3584 
Q 5097 3584 5394 3201 
Q 5691 2819 5691 2113 
L 5691 0 
L 5113 0 
L 5113 2094 
Q 5113 2597 4934 2840 
Q 4756 3084 4391 3084 
Q 3944 3084 3684 2787 
Q 3425 2491 3425 1978 
L 3425 0 
L 2847 0 
L 2847 2094 
Q 2847 2600 2669 2842 
Q 2491 3084 2119 3084 
Q 1678 3084 1418 2786 
Q 1159 2488 1159 1978 
L 1159 0 
L 581 0 
L 581 3500 
L 1159 3500 
L 1159 2956 
Q 1356 3278 1631 3431 
Q 1906 3584 2284 3584 
Q 2666 3584 2933 3390 
Q 3200 3197 3328 2828 
z
" transform="scale(0.015625)"/>
      </defs>
      <use xlink:href="#DejaVuSans-41"/>
      <use xlink:href="#DejaVuSans-6e" x="68.408203"/>
      <use xlink:href="#DejaVuSans-7a" x="131.787109"/>
      <use xlink:href="#DejaVuSans-61" x="184.277344"/>
      <use xlink:href="#DejaVuSans-68" x="245.556641"/>
      <use xlink:href="#DejaVuSans-6c" x="308.935547"/>
      <use xlink:href="#DejaVuSans-20" x="336.71875"/>
      <use xlink:href="#DejaVuSans-54" x="368.505859"/>
      <use xlink:href="#DejaVuSans-65" x="412.589844"/>
      <use xlink:href="#DejaVuSans-69" x="474.113281"/>
      <use xlink:href="#DejaVuSans-6c" x="501.896484"/>
      <use xlink:href="#DejaVuSans-6e" x="529.679688"/>
      <use xlink:href="#DejaVuSans-65" x="593.058594"/>
      <use xlink:href="#DejaVuSans-68" x="654.582031"/>
      <use xlink:href="#DejaVuSans-6d" x="717.960938"/>
      <use xlink:href="#DejaVuSans-65" x="815.373047"/>
      <use xlink:href="#DejaVuSans-72" x="876.896484"/>
     </g>
    </g>
   </g>
   <g id="patch_165">
    <path d="M 216 384.48 
L 216 51.84 
" style="fill: none; stroke: #000000; stroke-width: 0.8; stroke-linejoin: miter; stroke-linecap: square"/>
   </g>
   <g id="patch_166">
    <path d="M 1555.2 384.48 
L 1555.2 51.84 
" style="fill: none; stroke: #000000; stroke-width: 0.8; stroke-linejoin: miter; stroke-linecap: square"/>
   </g>
   <g id="patch_167">
    <path d="M 216 384.48 
L 1555.2 384.48 
" style="fill: none; stroke: #000000; stroke-width: 0.8; stroke-linejoin: miter; stroke-linecap: square"/>
   </g>
   <g id="patch_168">
    <path d="M 216 51.84 
L 1555.2 51.84 
" style="fill: none; stroke: #000000; stroke-width: 0.8; stroke-linejoin: miter; stroke-linecap: square"/>
   </g>
   <g id="text_17">
    <!-- Vortragende und Teilnehmende (ohne Vortrag) -->
    <g transform="translate(745.9425 45.84) scale(0.12 -0.12)">
     <defs>
      <path id="DejaVuSans-56" d="M 1831 0 
L 50 4666 
L 709 4666 
L 2188 738 
L 3669 4666 
L 4325 4666 
L 2547 0 
L 1831 0 
z
" transform="scale(0.015625)"/>
      <path id="DejaVuSans-6f" d="M 1959 3097 
Q 1497 3097 1228 2736 
Q 959 2375 959 1747 
Q 959 1119 1226 758 
Q 1494 397 1959 397 
Q 2419 397 2687 759 
Q 2956 1122 2956 1747 
Q 2956 2369 2687 2733 
Q 2419 3097 1959 3097 
z
M 1959 3584 
Q 2709 3584 3137 3096 
Q 3566 2609 3566 1747 
Q 3566 888 3137 398 
Q 2709 -91 1959 -91 
Q 1206 -91 779 398 
Q 353 888 353 1747 
Q 353 2609 779 3096 
Q 1206 3584 1959 3584 
z
" transform="scale(0.015625)"/>
      <path id="DejaVuSans-74" d="M 1172 4494 
L 1172 3500 
L 2356 3500 
L 2356 3053 
L 1172 3053 
L 1172 1153 
Q 1172 725 1289 603 
Q 1406 481 1766 481 
L 2356 481 
L 2356 0 
L 1766 0 
Q 1100 0 847 248 
Q 594 497 594 1153 
L 594 3053 
L 172 3053 
L 172 3500 
L 594 3500 
L 594 4494 
L 1172 4494 
z
" transform="scale(0.015625)"/>
      <path id="DejaVuSans-67" d="M 2906 1791 
Q 2906 2416 2648 2759 
Q 2391 3103 1925 3103 
Q 1463 3103 1205 2759 
Q 947 2416 947 1791 
Q 947 1169 1205 825 
Q 1463 481 1925 481 
Q 2391 481 2648 825 
Q 2906 1169 2906 1791 
z
M 3481 434 
Q 3481 -459 3084 -895 
Q 2688 -1331 1869 -1331 
Q 1566 -1331 1297 -1286 
Q 1028 -1241 775 -1147 
L 775 -588 
Q 1028 -725 1275 -790 
Q 1522 -856 1778 -856 
Q 2344 -856 2625 -561 
Q 2906 -266 2906 331 
L 2906 616 
Q 2728 306 2450 153 
Q 2172 0 1784 0 
Q 1141 0 747 490 
Q 353 981 353 1791 
Q 353 2603 747 3093 
Q 1141 3584 1784 3584 
Q 2172 3584 2450 3431 
Q 2728 3278 2906 2969 
L 2906 3500 
L 3481 3500 
L 3481 434 
z
" transform="scale(0.015625)"/>
      <path id="DejaVuSans-64" d="M 2906 2969 
L 2906 4863 
L 3481 4863 
L 3481 0 
L 2906 0 
L 2906 525 
Q 2725 213 2448 61 
Q 2172 -91 1784 -91 
Q 1150 -91 751 415 
Q 353 922 353 1747 
Q 353 2572 751 3078 
Q 1150 3584 1784 3584 
Q 2172 3584 2448 3432 
Q 2725 3281 2906 2969 
z
M 947 1747 
Q 947 1113 1208 752 
Q 1469 391 1925 391 
Q 2381 391 2643 752 
Q 2906 1113 2906 1747 
Q 2906 2381 2643 2742 
Q 2381 3103 1925 3103 
Q 1469 3103 1208 2742 
Q 947 2381 947 1747 
z
" transform="scale(0.015625)"/>
      <path id="DejaVuSans-75" d="M 544 1381 
L 544 3500 
L 1119 3500 
L 1119 1403 
Q 1119 906 1312 657 
Q 1506 409 1894 409 
Q 2359 409 2629 706 
Q 2900 1003 2900 1516 
L 2900 3500 
L 3475 3500 
L 3475 0 
L 2900 0 
L 2900 538 
Q 2691 219 2414 64 
Q 2138 -91 1772 -91 
Q 1169 -91 856 284 
Q 544 659 544 1381 
z
M 1991 3584 
L 1991 3584 
z
" transform="scale(0.015625)"/>
      <path id="DejaVuSans-28" d="M 1984 4856 
Q 1566 4138 1362 3434 
Q 1159 2731 1159 2009 
Q 1159 1288 1364 580 
Q 1569 -128 1984 -844 
L 1484 -844 
Q 1016 -109 783 600 
Q 550 1309 550 2009 
Q 550 2706 781 3412 
Q 1013 4119 1484 4856 
L 1984 4856 
z
" transform="scale(0.015625)"/>
      <path id="DejaVuSans-29" d="M 513 4856 
L 1013 4856 
Q 1481 4119 1714 3412 
Q 1947 2706 1947 2009 
Q 1947 1309 1714 600 
Q 1481 -109 1013 -844 
L 513 -844 
Q 928 -128 1133 580 
Q 1338 1288 1338 2009 
Q 1338 2731 1133 3434 
Q 928 4138 513 4856 
z
" transform="scale(0.015625)"/>
     </defs>
     <use xlink:href="#DejaVuSans-56"/>
     <use xlink:href="#DejaVuSans-6f" x="60.658203"/>
     <use xlink:href="#DejaVuSans-72" x="121.839844"/>
     <use xlink:href="#DejaVuSans-74" x="162.953125"/>
     <use xlink:href="#DejaVuSans-72" x="202.162109"/>
     <use xlink:href="#DejaVuSans-61" x="243.275391"/>
     <use xlink:href="#DejaVuSans-67" x="304.554688"/>
     <use xlink:href="#DejaVuSans-65" x="368.03125"/>
     <use xlink:href="#DejaVuSans-6e" x="429.554688"/>
     <use xlink:href="#DejaVuSans-64" x="492.933594"/>
     <use xlink:href="#DejaVuSans-65" x="556.410156"/>
     <use xlink:href="#DejaVuSans-20" x="617.933594"/>
     <use xlink:href="#DejaVuSans-75" x="649.720703"/>
     <use xlink:href="#DejaVuSans-6e" x="713.099609"/>
     <use xlink:href="#DejaVuSans-64" x="776.478516"/>
     <use xlink:href="#DejaVuSans-20" x="839.955078"/>
     <use xlink:href="#DejaVuSans-54" x="871.742188"/>
     <use xlink:href="#DejaVuSans-65" x="915.826172"/>
     <use xlink:href="#DejaVuSans-69" x="977.349609"/>
     <use xlink:href="#DejaVuSans-6c" x="1005.132812"/>
     <use xlink:href="#DejaVuSans-6e" x="1032.916016"/>
     <use xlink:href="#DejaVuSans-65" x="1096.294922"/>
     <use xlink:href="#DejaVuSans-68" x="1157.818359"/>
     <use xlink:href="#DejaVuSans-6d" x="1221.197266"/>
     <use xlink:href="#DejaVuSans-65" x="1318.609375"/>
     <use xlink:href="#DejaVuSans-6e" x="1380.132812"/>
     <use xlink:href="#DejaVuSans-64" x="1443.511719"/>
     <use xlink:href="#DejaVuSans-65" x="1506.988281"/>
     <use xlink:href="#DejaVuSans-20" x="1568.511719"/>
     <use xlink:href="#DejaVuSans-28" x="1600.298828"/>
     <use xlink:href="#DejaVuSans-6f" x="1639.3125"/>
     <use xlink:href="#DejaVuSans-68" x="1700.494141"/>
     <use xlink:href="#DejaVuSans-6e" x="1763.873047"/>
     <use xlink:href="#DejaVuSans-65" x="1827.251953"/>
     <use xlink:href="#DejaVuSans-20" x="1888.775391"/>
     <use xlink:href="#DejaVuSans-56" x="1920.5625"/>
     <use xlink:href="#DejaVuSans-6f" x="1981.220703"/>
     <use xlink:href="#DejaVuSans-72" x="2042.402344"/>
     <use xlink:href="#DejaVuSans-74" x="2083.515625"/>
     <use xlink:href="#DejaVuSans-72" x="2122.724609"/>
     <use xlink:href="#DejaVuSans-61" x="2163.837891"/>
     <use xlink:href="#DejaVuSans-67" x="2225.117188"/>
     <use xlink:href="#DejaVuSans-29" x="2288.59375"/>
    </g>
   </g>
   <g id="legend_1">
    <g id="patch_169">
     <path d="M 223 89.19625 
L 400.5875 89.19625 
Q 402.5875 89.19625 402.5875 87.19625 
L 402.5875 58.84 
Q 402.5875 56.84 400.5875 56.84 
L 223 56.84 
Q 221 56.84 221 58.84 
L 221 87.19625 
Q 221 89.19625 223 89.19625 
z
" style="fill: #ffffff; opacity: 0.8; stroke: #cccccc; stroke-linejoin: miter"/>
    </g>
    <g id="patch_170">
     <path d="M 225 68.438437 
L 245 68.438437 
L 245 61.438437 
L 225 61.438437 
z
" style="fill: #0000ff"/>
    </g>
    <g id="text_18">
     <!-- Vortragende -->
     <g transform="translate(253 68.438437) scale(0.1 -0.1)">
      <use xlink:href="#DejaVuSans-56"/>
      <use xlink:href="#DejaVuSans-6f" x="60.658203"/>
      <use xlink:href="#DejaVuSans-72" x="121.839844"/>
      <use xlink:href="#DejaVuSans-74" x="162.953125"/>
      <use xlink:href="#DejaVuSans-72" x="202.162109"/>
      <use xlink:href="#DejaVuSans-61" x="243.275391"/>
      <use xlink:href="#DejaVuSans-67" x="304.554688"/>
      <use xlink:href="#DejaVuSans-65" x="368.03125"/>
      <use xlink:href="#DejaVuSans-6e" x="429.554688"/>
      <use xlink:href="#DejaVuSans-64" x="492.933594"/>
      <use xlink:href="#DejaVuSans-65" x="556.410156"/>
     </g>
    </g>
    <g id="patch_171">
     <path d="M 225 83.116562 
L 245 83.116562 
L 245 76.116562 
L 225 76.116562 
z
" style="fill: #ff0000"/>
    </g>
    <g id="text_19">
     <!-- Teilnehmende (ohne Vortrag) -->
     <g transform="translate(253 83.116562) scale(0.1 -0.1)">
      <use xlink:href="#DejaVuSans-54"/>
      <use xlink:href="#DejaVuSans-65" x="44.083984"/>
      <use xlink:href="#DejaVuSans-69" x="105.607422"/>
      <use xlink:href="#DejaVuSans-6c" x="133.390625"/>
      <use xlink:href="#DejaVuSans-6e" x="161.173828"/>
      <use xlink:href="#DejaVuSans-65" x="224.552734"/>
      <use xlink:href="#DejaVuSans-68" x="286.076172"/>
      <use xlink:href="#DejaVuSans-6d" x="349.455078"/>
      <use xlink:href="#DejaVuSans-65" x="446.867188"/>
      <use xlink:href="#DejaVuSans-6e" x="508.390625"/>
      <use xlink:href="#DejaVuSans-64" x="571.769531"/>
      <use xlink:href="#DejaVuSans-65" x="635.246094"/>
      <use xlink:href="#DejaVuSans-20" x="696.769531"/>
      <use xlink:href="#DejaVuSans-28" x="728.556641"/>
      <use xlink:href="#DejaVuSans-6f" x="767.570312"/>
      <use xlink:href="#DejaVuSans-68" x="828.751953"/>
      <use xlink:href="#DejaVuSans-6e" x="892.130859"/>
      <use xlink:href="#DejaVuSans-65" x="955.509766"/>
      <use xlink:href="#DejaVuSans-20" x="1017.033203"/>
      <use xlink:href="#DejaVuSans-56" x="1048.820312"/>
      <use xlink:href="#DejaVuSans-6f" x="1109.478516"/>
      <use xlink:href="#DejaVuSans-72" x="1170.660156"/>
      <use xlink:href="#DejaVuSans-74" x="1211.773438"/>
      <use xlink:href="#DejaVuSans-72" x="1250.982422"/>
      <use xlink:href="#DejaVuSans-61" x="1292.095703"/>
      <use xlink:href="#DejaVuSans-67" x="1353.375"/>
      <use xlink:href="#DejaVuSans-29" x="1416.851562"/>
     </g>
    </g>
   </g>
  </g>
 </g>
 <defs>
  <clipPath id="p8d987aa411">
   <rect x="216" y="51.84" width="1339.2" height="332.64"/>
  </clipPath>
 </defs>
</svg>
